<?xml version="1.0" standalone="no"?>
<!DOCTYPE svg PUBLIC "-//W3C//DTD SVG 20010904//EN"
 "http://www.w3.org/TR/2001/REC-SVG-20010904/DTD/svg10.dtd">
<svg version="1.0" xmlns="http://www.w3.org/2000/svg"
 width="396.000000pt" height="396.000000pt" viewBox="0 0 396.000000 396.000000"
 preserveAspectRatio="xMidYMid meet">
<metadata>
Created by potrace 1.14, written by Peter Selinger 2001-2017
</metadata>
<g transform="translate(0.000000,396.000000) scale(0.100000,-0.100000)"
fill="#000000" stroke="none">
<path d="M1454 3950 c-37 -15 -93 -81 -100 -117 -17 -89 20 -352 71 -508 26
-78 30 -105 18 -105 -5 0 -44 21 -88 48 -139 82 -263 136 -315 136 -78 0 -133
-51 -132 -125 1 -72 46 -127 169 -206 216 -140 379 -237 434 -258 34 -14 67
-29 74 -35 32 -26 116 -415 107 -493 -3 -26 -6 -28 -40 -22 -66 10 -96 16
-181 42 -46 14 -122 31 -169 39 -99 16 -123 33 -147 103 -8 26 -26 62 -39 82
-13 19 -52 93 -86 165 -88 183 -171 305 -241 355 -97 69 -220 -12 -220 -144 0
-68 25 -130 105 -261 73 -119 77 -110 -44 -80 -54 13 -176 38 -235 49 -16 2
-41 7 -55 10 -14 4 -34 7 -45 9 -176 28 -227 10 -269 -94 -52 -131 4 -245 153
-311 66 -29 218 -79 257 -84 58 -7 155 -26 176 -34 20 -7 17 -11 -33 -48 -30
-22 -79 -55 -109 -75 -60 -38 -199 -179 -201 -203 -2 -19 -2 -41 0 -58 2 -21
54 -55 95 -61 21 -4 54 -2 75 4 20 5 38 9 41 9 15 -2 119 46 220 101 134 73
234 139 320 211 l62 51 51 -25 c29 -14 143 -55 254 -92 178 -58 202 -68 193
-83 -10 -19 -76 -90 -237 -256 l-105 -108 -77 6 c-42 4 -92 10 -111 14 -34 7
-81 7 -205 2 -33 -1 -98 -1 -145 0 -108 2 -173 -7 -230 -31 -64 -28 -84 -59
-82 -131 3 -118 47 -147 237 -154 66 -3 138 -7 160 -9 22 -2 48 -4 58 -4 9 -1
17 -6 17 -12 0 -11 -47 -75 -80 -109 -17 -18 -153 -168 -199 -220 -49 -55 -90
-133 -97 -183 -8 -53 19 -118 68 -167 26 -27 36 -30 91 -30 111 1 184 49 403
267 126 124 139 134 151 117 7 -10 13 -27 13 -38 4 -258 10 -305 41 -368 35
-68 93 -87 156 -48 47 28 75 93 88 200 2 25 8 70 11 100 8 61 12 437 6 500 -2
22 -8 38 -12 35 -20 -12 -17 13 3 37 205 236 309 346 342 358 31 12 41 -4 60
-88 10 -42 28 -104 40 -137 13 -33 40 -113 61 -177 l38 -117 -30 -43 c-31 -44
-60 -94 -132 -228 -22 -41 -58 -109 -80 -150 -51 -94 -68 -156 -71 -247 -3
-80 13 -122 55 -149 59 -39 154 31 239 176 44 75 97 140 113 140 18 0 52 -93
67 -185 4 -22 14 -56 22 -75 18 -43 36 -98 57 -170 12 -42 27 -67 66 -105 50
-49 52 -50 113 -50 78 0 131 26 172 84 28 40 30 49 29 124 -1 82 -16 150 -75
352 -37 123 -43 174 -24 182 8 3 64 -23 123 -56 188 -105 273 -132 351 -111
45 12 61 35 63 94 2 65 -71 162 -168 223 -71 45 -129 76 -190 101 -79 32 -225
118 -266 157 -40 37 -54 68 -87 196 -16 63 -38 145 -50 184 -43 144 -25 167
99 128 41 -13 95 -28 120 -34 25 -6 90 -27 146 -47 76 -27 105 -43 116 -62 8
-14 38 -61 65 -106 28 -44 73 -124 101 -178 73 -137 131 -224 187 -278 50 -49
86 -64 133 -53 26 5 81 47 83 63 0 4 3 16 5 27 21 104 13 164 -42 308 -19 50
-31 94 -27 98 5 5 58 -8 118 -27 113 -37 206 -55 310 -58 92 -4 125 7 168 55
31 35 37 49 37 86 0 58 -19 102 -63 140 -53 47 -242 138 -370 178 -112 35
-146 50 -137 58 3 3 64 42 135 88 72 45 144 93 162 106 61 46 88 151 51 198
-59 75 -183 86 -280 26 -51 -32 -160 -90 -460 -244 l-137 -71 -198 67 c-109
37 -208 67 -220 67 -35 0 -37 19 -6 49 76 74 187 197 265 292 29 36 50 54 58
49 16 -10 129 -13 388 -12 264 1 331 6 379 31 73 37 87 60 86 136 -1 36 -3 42
-20 62 -44 49 -70 56 -268 78 -16 1 -57 6 -90 9 -78 9 -105 15 -105 24 0 8 44
57 200 219 143 149 161 177 167 257 5 59 3 69 -23 111 -31 49 -83 88 -146 111
-94 33 -155 -12 -467 -346 l-61 -65 2 150 c1 169 -5 218 -37 290 -27 63 -55
82 -118 79 -57 -2 -81 -21 -122 -95 -20 -38 -29 -72 -34 -132 -8 -93 -6 -431
3 -492 3 -22 8 -61 11 -86 l6 -45 -175 -170 c-121 -116 -183 -169 -198 -169
-25 0 -30 9 -133 291 l-56 151 42 74 c23 41 61 104 85 141 24 37 44 69 44 71
0 2 24 40 53 84 89 137 167 305 167 359 0 49 -20 78 -78 115 -57 36 -100 37
-152 4 -49 -31 -115 -99 -134 -139 -8 -17 -44 -76 -80 -130 l-64 -100 -16 38
c-31 73 -86 251 -92 296 -15 108 -87 233 -155 268 -53 27 -87 33 -115 22z
m104 -98 c18 -14 30 -27 28 -30 -3 -2 -12 3 -21 12 -24 23 -70 20 -102 -8 -24
-21 -28 -32 -30 -83 -1 -63 13 -159 47 -298 21 -86 67 -255 78 -284 6 -16 -28
-12 -81 8 l-29 11 23 36 22 37 -23 116 c-13 64 -31 141 -41 172 -18 59 -24
223 -10 277 9 32 65 73 89 65 9 -4 32 -18 50 -31z m95 -172 c19 -52 38 -106
41 -120 l6 -25 -12 25 c-26 57 -88 215 -88 226 0 22 22 -21 53 -106z m592 -59
c26 -15 29 -22 27 -52 -5 -43 -8 -46 -29 -27 -53 47 -116 59 -158 32 -31 -20
-32 -11 -2 20 51 54 101 63 162 27z m1131 -236 c38 -29 73 -94 74 -135 0 -27
-22 -65 -69 -120 l-30 -35 15 45 c10 28 13 60 10 85 -9 54 -61 143 -97 163
-42 24 -36 35 16 30 28 -4 59 -16 81 -33z m-2331 -57 c-30 -16 -29 -15 -35
-71 l-5 -52 -18 32 c-25 47 -22 67 16 86 37 18 74 23 42 5z m-276 -319 c34
-31 125 -158 151 -209 13 -25 57 -106 99 -180 74 -130 104 -190 97 -190 -3 0
-66 99 -66 105 0 7 -164 251 -198 295 -92 117 -150 162 -172 135 -20 -25 -19
-88 6 -180 9 -34 -23 24 -46 84 -27 69 -20 101 28 135 44 31 71 33 101 5z
m2729 -335 c65 -24 81 -72 40 -117 -23 -25 -82 -50 -92 -39 -3 3 1 13 10 23
42 47 5 106 -86 138 l-55 19 70 -5 c39 -2 89 -11 113 -19z m-743 -143 l40 -7
-34 -7 c-55 -11 -180 -123 -315 -280 -77 -89 -108 -136 -99 -150 4 -6 -1 -8
-11 -4 -10 4 -22 7 -27 7 -13 0 -11 28 4 37 6 4 39 40 71 78 86 102 148 175
171 199 11 11 42 47 69 79 51 60 57 62 131 48z m-1962 -35 c4 -10 1 -13 -8 -9
-8 3 -12 9 -9 14 7 12 11 11 17 -5z m2881 -295 c27 -25 27 -58 0 -99 -13 -20
-203 -152 -219 -152 -3 0 15 21 41 48 87 87 128 174 89 189 -21 7 -130 -30
-240 -82 -66 -32 -82 -37 -60 -19 17 13 51 35 76 47 25 13 60 34 77 46 78 55
190 65 236 22z m-2533 -131 c30 -5 70 -12 89 -15 19 -3 60 -10 90 -15 68 -11
105 -17 193 -30 100 -15 152 -48 176 -113 15 -39 16 -36 -36 -93 -142 -152
-294 -314 -340 -362 -37 -39 -56 -53 -69 -48 -21 8 -190 34 -280 42 -38 4 -76
10 -84 15 -10 6 -5 7 15 4 17 -2 75 -7 130 -10 55 -3 116 -7 135 -10 104 -15
107 -14 177 61 36 38 119 124 184 191 66 67 120 129 120 138 1 8 2 21 3 28 4
24 -16 68 -35 78 -30 16 -139 50 -189 58 -25 5 -85 20 -135 35 -97 29 -195 39
-235 25 l-25 -9 25 20 c30 23 23 22 91 10z m-762 -251 c-6 -12 -9 -39 -6 -60
5 -35 3 -37 -17 -30 -31 12 -31 37 -1 76 29 39 42 46 24 14z m2931 -33 c5 -5
86 -34 182 -66 187 -62 281 -103 347 -151 73 -52 83 -116 26 -169 -42 -39
-161 -31 -355 25 l-85 24 60 -5 c33 -3 71 -7 85 -10 55 -10 266 -15 278 -6 10
7 12 23 7 66 -6 49 -11 59 -36 71 -26 14 -224 68 -288 80 -55 9 -203 56 -240
75 -52 26 -58 47 -24 82 24 26 28 27 31 11 2 -10 8 -22 12 -27z m-465 -148 c7
-7 -4 -8 -35 -4 -59 9 -72 23 -17 18 23 -2 47 -9 52 -14z m-2273 -193 c-34 -8
-77 -24 -95 -36 l-32 -23 24 27 c27 30 63 43 126 45 33 1 30 -1 -23 -13z m245
9 c-3 -3 -12 -4 -19 -1 -8 3 -5 6 6 6 11 1 17 -2 13 -5z m-258 -195 c112 -1
285 -9 308 -14 37 -8 83 -54 83 -82 0 -24 -29 -71 -73 -118 -46 -49 -218 -286
-251 -346 -42 -76 -46 -119 -14 -149 32 -30 114 -28 162 5 20 13 36 21 36 17
0 -4 -20 -20 -45 -35 -53 -34 -113 -44 -154 -27 -35 14 -81 76 -81 108 0 47
41 115 125 208 18 20 49 58 90 109 22 28 42 52 45 55 18 18 90 121 104 147 15
30 15 35 1 57 -9 13 -24 27 -33 31 -9 3 -91 8 -181 11 -144 3 -168 6 -197 25
-19 11 -34 25 -34 30 0 5 10 1 22 -11 17 -16 36 -20 87 -21z m638 -341 c6 -7
13 -21 17 -32 5 -14 3 -17 -10 -12 -62 24 -57 27 -225 -140 -87 -87 -159 -156
-159 -154 0 3 44 50 98 106 53 55 128 133 165 172 66 70 95 85 114 60z m1763
-99 c25 -24 53 -54 63 -66 21 -24 38 -88 30 -109 -8 -20 -65 -27 -123 -15 -53
11 -231 93 -249 115 -5 6 35 -3 88 -21 54 -17 120 -34 147 -37 54 -7 103 8
100 30 -5 35 -77 102 -182 171 -11 7 4 5 31 -5 29 -11 69 -37 95 -63z m-381
-386 c51 -156 59 -263 24 -311 -61 -84 -202 -79 -244 9 -54 112 -68 172 -19
79 43 -83 72 -111 120 -117 38 -5 43 -3 90 44 47 47 50 53 50 100 0 60 -26
181 -52 241 -20 48 -26 91 -8 60 6 -9 23 -56 39 -105z"/>
</g>
</svg>
